<svg width="24" height="24" viewBox="0 0 24 24" fill="none" xmlns="http://www.w3.org/2000/svg">
<path d="M16.5 3C19.538 3 22 5.43243 22 8.83784C22 15.6486 14.5 19.5405 12 21C9.5 19.5405 2 15.6486 2 8.83784C2 5.43243 4.5 3 7.5 3C9.36 3 11 3.97297 12 4.94595C13 3.97297 14.64 3 16.5 3ZM12.934 18.1823C13.815 17.6413 14.61 17.1032 15.354 16.5272C18.335 14.2213 20 11.7013 20 8.83784C20 6.54162 18.463 4.94595 16.5 4.94595C15.424 4.94595 14.26 5.50054 13.414 6.32173L12 7.69751L10.586 6.32173C9.74 5.50054 8.576 4.94595 7.5 4.94595C5.56 4.94595 4 6.55719 4 8.83784C4 11.7023 5.666 14.2213 8.645 16.5272C9.39 17.1032 10.185 17.6413 11.066 18.1813C11.365 18.3652 11.661 18.5413 12 18.7378C12.339 18.5413 12.635 18.3652 12.934 18.1823Z" fill="#232527"/>
</svg>
