<svg width="21" height="19" viewBox="0 0 21 19" fill="none" xmlns="http://www.w3.org/2000/svg">
<path fill-rule="evenodd" clip-rule="evenodd" d="M3.01172 0.998047H7.01283V2.99805H3.01172C2.45943 2.99805 2.01172 3.44576 2.01172 3.99805V8.998H7.01172C7.01172 9.7937 7.32779 10.5568 7.8904 11.1194C8.453 11.682 9.2161 11.998 10.0117 11.998C10.8074 11.998 11.5704 11.682 12.133 11.1194C12.6956 10.5568 13.0117 9.7937 13.0117 8.998H18.0117V3.99805C18.0117 3.44576 17.564 2.99805 17.0117 2.99805H13.0128V0.998047H17.0117C18.6686 0.998047 20.0117 2.34119 20.0117 3.99805V15.998C20.0117 17.6549 18.6686 18.998 17.0117 18.998H3.01172C1.35486 18.998 0.0117188 17.6549 0.0117188 15.998V3.99805C0.0117188 2.34119 1.35486 0.998047 3.01172 0.998047ZM2.01172 15.998V10.998H5.42772C5.81681 11.8902 6.45778 12.6494 7.27203 13.1826C8.0863 13.7158 9.0384 13.9998 10.0117 13.9998C10.985 13.9998 11.9372 13.7158 12.7514 13.1826C13.5657 12.6494 14.2066 11.8902 14.5957 10.998H18.0117V15.998C18.0117 16.5503 17.564 16.998 17.0117 16.998H3.01172C2.45943 16.998 2.01172 16.5503 2.01172 15.998ZM11.0039 5.00195V1.00195H9.0039V5.00195H6.00391L10.0039 9.002L14.0039 5.00195H11.0039Z" fill="#232527"/>
</svg>
