<svg width="24" height="24" viewBox="0 0 24 24" fill="none" xmlns="http://www.w3.org/2000/svg">
<path d="M12 2C17.522 2 22 5.978 22 10.889C21.9992 12.3622 21.4136 13.7748 20.3717 14.8165C19.3299 15.8581 17.9172 16.4435 16.444 16.444H14.478C14.157 16.4429 13.8426 16.5348 13.5727 16.7086C13.3029 16.8824 13.0892 17.1307 12.9575 17.4234C12.8258 17.7162 12.7817 18.0408 12.8306 18.358C12.8795 18.6752 13.0193 18.9715 13.233 19.211C13.4504 19.4499 13.5937 19.7468 13.6455 20.0657C13.6973 20.3846 13.6554 20.7116 13.5248 21.007C13.3941 21.3025 13.1805 21.5536 12.9098 21.7299C12.6391 21.9062 12.323 22 12 22C9.34784 22 6.8043 20.9464 4.92893 19.0711C3.05357 17.1957 2 14.6522 2 12C2 9.34784 3.05357 6.8043 4.92893 4.92893C6.8043 3.05357 9.34784 2 12 2ZM10.811 18.111C10.8106 17.6293 10.9052 17.1523 11.0893 16.7072C11.2735 16.2622 11.5436 15.8578 11.8842 15.5172C12.2248 15.1766 12.6292 14.9065 13.0742 14.7223C13.5193 14.5382 13.9963 14.4436 14.478 14.444H16.444C17.3866 14.4435 18.2905 14.0689 18.9572 13.4026C19.6239 12.7363 19.9989 11.8326 20 10.89C20 7.139 16.468 4 12 4C9.93558 3.99812 7.95034 4.79436 6.45938 6.22225C4.96841 7.65014 4.08715 9.59913 3.99986 11.6617C3.91256 13.7243 4.62599 15.7408 5.99097 17.2895C7.35595 18.8383 9.2668 19.7994 11.324 19.972C10.9892 19.4093 10.812 18.7668 10.811 18.112V18.111ZM7.5 12C7.20333 12 6.91332 11.912 6.66664 11.7472C6.41997 11.5824 6.22771 11.3481 6.11418 11.074C6.00065 10.7999 5.97094 10.4983 6.02882 10.2074C6.0867 9.91639 6.22956 9.64912 6.43934 9.43934C6.64912 9.22956 6.91639 9.0867 7.20736 9.02882C7.49834 8.97094 7.79994 9.00065 8.07403 9.11418C8.34811 9.22771 8.58238 9.41997 8.7472 9.66665C8.91203 9.91332 9 10.2033 9 10.5C9 10.8978 8.84196 11.2794 8.56066 11.5607C8.27936 11.842 7.89782 12 7.5 12ZM16.5 12C16.2033 12 15.9133 11.912 15.6666 11.7472C15.42 11.5824 15.2277 11.3481 15.1142 11.074C15.0006 10.7999 14.9709 10.4983 15.0288 10.2074C15.0867 9.91639 15.2296 9.64912 15.4393 9.43934C15.6491 9.22956 15.9164 9.0867 16.2074 9.02882C16.4983 8.97094 16.7999 9.00065 17.074 9.11418C17.3481 9.22771 17.5824 9.41997 17.7472 9.66665C17.912 9.91332 18 10.2033 18 10.5C18 10.8978 17.842 11.2794 17.5607 11.5607C17.2794 11.842 16.8978 12 16.5 12ZM12 9C11.7033 9 11.4133 8.91203 11.1666 8.7472C10.92 8.58238 10.7277 8.34811 10.6142 8.07403C10.5006 7.79994 10.4709 7.49834 10.5288 7.20736C10.5867 6.91639 10.7296 6.64912 10.9393 6.43934C11.1491 6.22956 11.4164 6.0867 11.7074 6.02882C11.9983 5.97094 12.2999 6.00065 12.574 6.11418C12.8481 6.22771 13.0824 6.41997 13.2472 6.66664C13.412 6.91332 13.5 7.20333 13.5 7.5C13.5 7.89782 13.342 8.27936 13.0607 8.56066C12.7794 8.84196 12.3978 9 12 9Z" fill="#232527"/>
</svg>
