<svg width="24" height="24" viewBox="0 0 24 24" fill="none" xmlns="http://www.w3.org/2000/svg">
<path fill-rule="evenodd" clip-rule="evenodd" d="M17 4H7C6.44772 4 6 4.44772 6 5V19.3915L10.41 16.6353C11.3828 16.0272 12.6172 16.0272 13.59 16.6353L18 19.3915V5C18 4.44772 17.5523 4 17 4ZM7 2H17C18.6569 2 20 3.34315 20 5V21.1958C20 21.9812 19.136 22.46 18.47 22.0438L12.53 18.3312C12.2057 18.1286 11.7943 18.1286 11.47 18.3312L5.53 22.0438C4.86395 22.46 4 21.9812 4 21.1958V5C4 3.34315 5.34315 2 7 2Z" fill="#232527"/>
</svg>
